<svg version="1" xmlns="http://www.w3.org/2000/svg" width="346.667" height="346.667" viewBox="0 0 260.000000 260.000000"><path d="M97.7 1.8C96.2 3.4 96 6.6 96 25.3c0 21.2 0 21.6 2.2 23.1 2.1 1.5.9 1.6-14.5 1.6H67l2-2c1.8-1.8 2-3.3 2-14.6 0-6.9-.5-13.4-1-14.5-.7-1.3-2.1-1.9-4.5-1.9s-3.8.6-4.5 1.9c-.5 1.1-1 7.8-1 15 0 12.3.1 13.1 2.2 14.5 2.1 1.5.5 1.6-19.5 1.6-20.5 0-21.8.1-23.7 2-2 2-2 2.8-1.8 94.3.3 85 .4 92.5 2 96 2.8 6.2 7.3 11.1 13 14.3l5.3 2.9 62.1.3c60.3.2 62.3.2 67.6-1.8 6.5-2.4 12.7-8.1 15.8-14.6 2.1-4.4 2.4-6.7 2.8-21.1l.4-16.2 4.2-.6c26.9-4.1 46.9-22.8 51.3-48 1.3-7.5 1.3-11 .4-21.1-2.2-24.4-9.1-36.4-25.6-44.5-6-2.9-17.3-5.8-23-5.9-7.6-.1-7.3.6-7.7-17.2-.3-14.4-.5-16.1-2.2-17.4-1.6-1.1-6.5-1.4-23.3-1.4-21.3 0-21.3 0-19.3-2 1.8-1.8 2-3.3 2-14.6 0-6.9-.5-13.4-1-14.5-.7-1.3-2.1-1.9-4.5-1.9s-3.8.6-4.5 1.9c-.5 1.1-1 7.8-1 15 0 12.3.1 13.1 2.2 14.5 2.1 1.5.9 1.6-14.5 1.6H103l2-2c1.9-1.9 2-3.3 2-23.3 0-19.5-.2-21.5-1.8-23-2.4-2.2-5.5-2.1-7.5.1zM175 146.7c0 56-.4 87.1-1 89.5-1.4 4.8-5.5 9.7-9.7 11.4-4.9 2.1-122.2 2-126.1 0-3.6-1.9-7.8-6.5-9.1-9.9-.8-1.9-1.1-30.8-1.1-89.8V61h147v85.7zm25.8-48.5c15.5 2.9 23.9 10.4 28.4 25.3 3.1 10.1 3.1 31.4 0 39.7-6 16.4-20.8 28.2-39 31.3l-4.2.7v-10l5-1.1c10.9-2.3 21.5-9.9 26.2-18.8 3.9-7.2 5.2-14.3 4.5-24.2-.9-12.1-3-18.4-8-23.8-5.9-6.4-11.1-8.7-23.9-10.8l-3.8-.6v-10l4.8.6c2.6.4 7.1 1.1 10 1.7zm-2.4 21.5c8.2 2.8 11.5 8.5 12.3 21.2.8 11.8-1.2 18.7-7.1 24.5-3.7 3.8-13.1 8.6-16.6 8.6-.6 0-1-10.9-1-28.6v-28.6l4.2.7c2.4.4 6.1 1.4 8.2 2.2z"/><path d="M107.1 114.2C103 127.3 86 185.3 86 186.5c0 1.9 6.1 3.6 7.6 2.1 1.1-1.1 22.4-71.8 22.4-74.3 0-1.5-3.2-3.3-5.9-3.3-1.3 0-2.3 1-3 3.2zM62.6 135.9c-8.4 8.4-13.7 14.4-13.4 15.3.3.7 6.9 7.3 14.6 14.6l14 13.3 3.6-3.2c2-1.7 3.6-3.8 3.6-4.7 0-.9-4.4-6.1-9.7-11.4l-9.8-9.8 9.8-9.8c5.3-5.3 9.7-10.2 9.7-10.8 0-1.3-6.2-7.4-7.6-7.4-.5 0-7.2 6.3-14.8 13.9zM120.2 125.3c-1.8 1.8-3.2 3.7-3.2 4.2s4.4 5.4 9.7 10.7l9.8 9.8-9.8 9.8c-5.3 5.3-9.7 10.5-9.7 11.4 0 1.5 6.2 7.8 7.7 7.8 1.1 0 28.3-27.4 28.3-28.5 0-1.3-27.2-28.5-28.6-28.5-.5 0-2.4 1.5-4.2 3.3z"/></svg>