<svg version="1" xmlns="http://www.w3.org/2000/svg" width="682.667" height="682.667" viewBox="0 0 512.000000 512.000000"><path d="M164.3 114.6c-1 .4-11.6 12-25.1 27.3-1.3 1.4-3.6 3.9-5 5.6-1.5 1.6-7.8 8.8-14.1 16-6.2 7.1-12.6 14.3-14 16-1.5 1.6-7.8 8.8-14 16-6.3 7.1-11.9 13.4-12.5 14-.6.5-4.4 4.8-8.5 9.5-4 4.7-9.4 10.8-12 13.5-2.5 2.8-6.8 7.5-9.5 10.5-5 5.5-8.2 8.9-34.1 36.4-7.7 8.2-14.2 15.2-14.3 15.7-.7 1.8 1.9.7 15.9-6.9 13-7.1 31.1-16.7 47.4-25.2 20.3-10.6 31.9-13.6 49-12.7 6.7.3 13.9 1.4 18.4 2.7 14.5 4.1 17 5.8 38.2 26.7 21.9 21.5 30.2 28.6 36.9 31.5 7.6 3.4 18.8 3.4 40 .3 20.6-3 33.7-3 42.5 0 6.1 2 22.8 10.2 39 19 15.2 8.2 25.1 11.5 35 11.5 6.7 0 8.1-.4 15.2-4 11.4-5.9 17.1-12 24.3-25.8 1.7-3.4 3.6-6.4 4.1-6.7.6-.4 14.7 11.5 23.5 19.9.6.6 4.2 3.9 8 7.2 3.8 3.4 8.1 7.2 9.5 8.5 3.4 3.2 21.6 19.9 29.9 27.4 9.1 8.2 14.5 13.2 20.9 19.1 10.2 9.3 11.5 10.3 11.9 9.9.6-.5-2.7-5-11.8-16.5-21.3-26.6-81.6-107.5-126.8-170-7.8-10.7-14.5-20-15.1-20.6-.5-.7-3.3-4.4-6.2-8.3-2.8-3.9-5.7-7.1-6.4-7.1-.7 0-9.7 8.9-20.1 19.7-24.9 26.2-54.7 55.9-57.4 57.3-2 1.1-2.7.6-7.5-4.3-11.2-11.8-43.3-57.8-74.6-106.9-17.5-27.5-17.5-27.4-20.6-26.2z"/></svg>